<svg xmlns="http://www.w3.org/2000/svg" xmlns:xlink="http://www.w3.org/1999/xlink" viewBox="0 0 640 320">
<defs>
<linearGradient id="sunset" x2="0" y2="1"><stop stop-color="#ffefaf"/><stop offset="1" stop-color="#f6b66b"/></linearGradient>
<linearGradient id="forest" x2="0" y2="1"><stop stop-color="#d7f8e5"/><stop offset="1" stop-color="#60b18f"/></linearGradient>
<linearGradient id="desert" x2="0" y2="1"><stop stop-color="#ffe7bc"/><stop offset="1" stop-color="#c88a5d"/></linearGradient>
<linearGradient id="reading" x2="0" y2="1"><stop stop-color="#dff3ff"/><stop offset="1" stop-color="#8cbfe6"/></linearGradient>
<linearGradient id="writing" x2="0" y2="1"><stop stop-color="#fbebff"/><stop offset="1" stop-color="#ad9ad8"/></linearGradient>
<linearGradient id="mystery" x2="0" y2="1"><stop stop-color="#dceafa"/><stop offset="1" stop-color="#7f9dbd"/></linearGradient>
<filter id="shadow"><feDropShadow dx="0" dy="8" stdDeviation="5" flood-color="#29394b" flood-opacity=".22"/></filter>
<g id="cloud" fill="#fff" opacity=".8"><ellipse cx="0" rx="34" ry="14"/><ellipse cx="-18" cy="-10" rx="24" ry="19"/><ellipse cx="20" cy="-8" rx="29" ry="18"/></g>
<g id="tree"><path d="M-7 36V-25H7V36" fill="#855e45"/><path d="M0-98 -50-21H50Z" fill="#317e68"/><path d="M0-66 -43 4H43Z" fill="#43967a"/></g>
<g id="star" fill="#fff2aa"><path d="M0-13 4-3 15 0 4 4 0 14-4 4-15 0-4-3Z"/></g>
</defs>
<symbol id="phonetics" viewBox="0 0 640 320">
<rect width="640" height="320" fill="url(#sunset)"/><circle cx="535" cy="60" r="41" fill="#fff0b1"/>
<use href="#cloud" x="103" y="70"/><use href="#cloud" x="403" y="44"/>
<path d="M0 234Q150 160 307 226T640 195V320H0" fill="#a4d8a0"/><path d="M0 277Q180 210 330 278T640 238V320H0" fill="#5ca783"/>
<use href="#tree" transform="translate(53 241) scale(1.12)"/><use href="#tree" transform="translate(589 240) scale(.95)"/>
<g filter="url(#shadow)"><path d="M201 286V112M316 277V91M431 285V112" stroke="#865c3e" stroke-width="13" stroke-linecap="round"/><rect x="164" y="104" width="77" height="95" rx="9" fill="#fff4d6" stroke="#b68049" stroke-width="7"/><rect x="275" y="78" width="84" height="100" rx="9" fill="#fff4d6" stroke="#b68049" stroke-width="7"/><rect x="392" y="105" width="79" height="94" rx="9" fill="#fff4d6" stroke="#b68049" stroke-width="7"/></g>
<g fill="#614632" font-family="serif" font-weight="bold" font-size="58" text-anchor="middle"><text x="202" y="166">ㄅ</text><text x="317" y="146">ㄆ</text><text x="432" y="169">ㄇ</text></g>
<g transform="translate(520 229)" filter="url(#shadow)"><ellipse rx="51" ry="57" fill="#b8794a"/><ellipse cy="8" rx="35" ry="43" fill="#ffe3b0"/><circle cx="-20" cy="-18" r="17" fill="white"/><circle cx="19" cy="-18" r="17" fill="white"/><circle cx="-20" cy="-16" r="7" fill="#263849"/><circle cx="19" cy="-16" r="7" fill="#263849"/><path d="m-9 0 11 13 10-13Z" fill="#e8a33f"/><path d="m-46-35-7-42 35 22m39-1 36-21-6 43" fill="#a46e45"/></g><use href="#star" x="125" y="165"/><use href="#star" x="491" y="104"/>
</symbol>
<symbol id="characters" viewBox="0 0 640 320">
<rect width="640" height="320" fill="url(#forest)"/><use href="#cloud" x="475" y="59"/><path d="M0 209 128 136 278 221 427 135 640 231V320H0Z" fill="#9bc8a6"/><path d="M0 268Q195 220 340 270T640 242V320H0Z" fill="#478d6e"/><use href="#tree" transform="translate(75 246) scale(1.28)"/><use href="#tree" transform="translate(583 249) scale(1.24)"/>
<g filter="url(#shadow)"><rect x="142" y="151" width="105" height="106" rx="12" fill="#f6e6c4" stroke="#997b55" stroke-width="7"/><rect x="251" y="119" width="107" height="121" rx="13" fill="#f9efce" stroke="#997b55" stroke-width="7"/><rect x="359" y="146" width="107" height="111" rx="12" fill="#f6e6c4" stroke="#997b55" stroke-width="7"/></g>
<g fill="#36574d" font-family="serif" font-size="64" font-weight="bold" text-anchor="middle"><text x="196" y="229">木</text><text x="305" y="207">山</text><text x="412" y="226">海</text></g>
<g filter="url(#shadow)"><path d="M485 249q-5-61 55-61t55 61" fill="none" stroke="#ae672b" stroke-width="15"/><rect x="477" y="233" width="127" height="60" rx="9" fill="#e4a14a" stroke="#9a6428" stroke-width="7"/><path d="M477 238h127l-10-22H487Z" fill="#ffdb75" stroke="#996326" stroke-width="6"/><rect x="533" y="231" width="19" height="43" rx="4" fill="#f9e7a4"/></g><use href="#star" x="535" y="160"/><use href="#star" x="588" y="186"/><use href="#star" x="492" y="128"/>
</symbol>
<symbol id="idioms" viewBox="0 0 640 320">
<rect width="640" height="320" fill="url(#desert)"/><circle cx="483" cy="72" r="38" fill="#fff2c3"/><path d="M0 218Q145 149 272 199T640 164V320H0Z" fill="#e6bb82"/><path d="M0 274Q201 201 348 276T640 235V320H0Z" fill="#c68f65"/>
<g fill="#98785d" stroke="#765c4a" stroke-width="4"><rect x="29" y="130" width="113" height="146" rx="7"/><rect x="134" y="162" width="104" height="131" rx="7"/><rect x="229" y="116" width="116" height="166" rx="7"/><rect x="329" y="154" width="116" height="131" rx="7"/><rect x="434" y="104" width="111" height="181" rx="7"/><rect x="541" y="151" width="113" height="143" rx="7"/></g>
<path d="M279 289V197a52 52 0 0 1 104 0v92" fill="#5c4c4a"/><path d="M298 282V199a34 34 0 0 1 68 0v83" fill="#ffe7ae"/>
<g filter="url(#shadow)"><path d="M85 249V84" stroke="#73533b" stroke-width="12"/><path d="M91 83h158v65H91l-23-33Z" fill="#ffdc91" stroke="#946b3b" stroke-width="6"/></g><text x="167" y="126" text-anchor="middle" font-size="40" font-weight="bold" font-family="serif" fill="#584330">成語</text>
<path d="m460 240 27-77 27 77Z" fill="#e28e3a"/><path d="m469 221 17-44 17 44" fill="#ffe3a3"/><use href="#star" x="368" y="93"/><use href="#star" x="552" y="73"/>
</symbol>
<symbol id="reading" viewBox="0 0 640 320">
<rect width="640" height="320" fill="url(#reading)"/><use href="#cloud" x="118" y="67"/><use href="#cloud" x="504" y="88"/><path d="M0 224 125 157 271 228 435 144 640 222V320H0Z" fill="#b8ddcf"/><path d="M0 263Q198 198 349 266T640 235V320H0Z" fill="#72bca8"/>
<g filter="url(#shadow)" transform="translate(305 225) rotate(-8)"><path d="M-174-41q88-39 173 4 81-43 172-4v124q-83-37-172 10-93-47-173-10Z" fill="#fff8e4" stroke="#987550" stroke-width="9"/><path d="M0-37V94" stroke="#c5a070" stroke-width="6"/><path d="M-140-6q63-20 113 0M-140 19q63-20 113 0M-140 44q63-20 113 0M30-6q63-20 111 0M30 19q63-20 111 0M30 44q63-20 111 0" stroke="#a6c0bc" stroke-width="5" fill="none"/></g>
<g transform="translate(490 189) rotate(20)" filter="url(#shadow)"><circle r="53" fill="#a9e2f2" fill-opacity=".3" stroke="#526f7c" stroke-width="15"/><path d="M34 39 103 107" stroke="#7d5b40" stroke-width="24" stroke-linecap="round"/><path d="M34 39 103 107" stroke="#d6a366" stroke-width="9" stroke-linecap="round"/></g>
<use href="#star" x="129" y="153"/><use href="#star" x="532" y="79"/>
</symbol>
<symbol id="writing" viewBox="0 0 640 320">
<rect width="640" height="320" fill="url(#writing)"/><path d="M0 190q160-42 321 0t319-21v151H0Z" fill="#d9b7b0"/><path d="M0 236q233-38 425 5t215-3v82H0Z" fill="#bb8d82"/>
<g transform="translate(270 174) rotate(-8)" filter="url(#shadow)"><rect x="-152" y="-117" width="304" height="241" rx="13" fill="#fff9ee" stroke="#beaa92" stroke-width="7"/><path d="M-107-76h217M-107-31h217M-107 14h217M-107 59h217" stroke="#cedce5" stroke-width="5"/><path d="M-111-94v193" stroke="#efb2b5" stroke-width="5"/><g fill="#505c77" font-family="serif" font-weight="bold" font-size="31"><text x="-81" y="-40">觀察</text><text x="-81" y="3">思考</text><text x="-81" y="48">表達</text><text x="-81" y="92">創造</text></g></g>
<g transform="translate(480 173) rotate(35)" filter="url(#shadow)"><rect x="-16" y="-115" width="32" height="227" rx="7" fill="#f4b847" stroke="#b77738" stroke-width="5"/><path d="m-16 111 16 48 16-48Z" fill="#f1d7ae"/><path d="m-5 144 5 15 5-15Z" fill="#433a3c"/><rect x="-16" y="-115" width="32" height="33" fill="#df8c99"/></g><g fill="#fff4da"><circle cx="58" cy="59" r="15"/><circle cx="564" cy="67" r="9"/></g><use href="#star" x="585" y="135"/>
</symbol>
<symbol id="coming" viewBox="0 0 640 320">
<rect width="640" height="320" fill="url(#mystery)"/><use href="#cloud" x="87" y="80"/><use href="#cloud" x="523" y="79"/>
<path d="M0 248 96 186 180 231 289 117 402 227 514 142 640 240V320H0Z" fill="#9eb6cc"/><path d="M0 266Q155 235 295 260T640 230V320H0Z" fill="#6e97ab"/>
<path d="M263 250 309 69 355 250Z" fill="#486f86"/><path d="M289 129 309 69 329 129" fill="#c8e6ef"/><path d="M309 69V31" stroke="#314e62" stroke-width="7"/><path d="M309 31h64l-17 15 17 14h-64" fill="#ffd77c"/>
<text x="309" y="214" fill="#edf7ff" font-family="sans-serif" font-size="97" font-weight="bold" text-anchor="middle">?</text>
<path d="M0 297q170-39 325 3t315-18v38H0Z" fill="#e8f5f6" opacity=".65"/><use href="#star" x="477" y="119"/>
</symbol>
</svg>